<?xml version="1.0" encoding="utf-8"?>
<svg width="32" height="32" viewBox="0 0 32 32" fill="none" xmlns="http://www.w3.org/2000/svg">
  <path d="M16 32C24.8366 32 32 24.8366 32 16C32 7.16344 24.8366 0 16 0C7.16344 0 0 7.16344 0 16C0 24.8366 7.16344 32 16 32Z" fill="black"/>
  <path d="M20.8422 9.10132L18.0328 13.4507C17.8376 13.7533 18.0814 14.1559 18.4338 14.0901L21.1939 13.5989C21.3648 13.5659 21.5235 13.6901 21.5399 13.8641L22.1946 22.1359C22.2191 22.4056 21.9016 22.5791 21.7065 22.3937L11.5018 12.6683C11.2575 12.4336 11.3556 12.0226 11.6752 11.9157L20.3589 9.00659C20.6129 8.92133 20.8749 8.9683 20.8422 9.10132Z" fill="white"/>
</svg>